<?xml version="1.0" encoding="UTF-8"?> <svg xmlns="http://www.w3.org/2000/svg" width="770" height="770" viewBox="0 0 770 770" fill="none"><rect width="770" height="770" fill="#23D0D0"></rect><g clip-path="url(#clip0_244_93462)"><path d="M214.433 191.73H117.86V331.892H214.433V191.73Z" fill="#455A64"></path><path d="M209.575 191.73H113.003V331.892H209.575V191.73Z" fill="#6A8998"></path><path d="M197.625 206.904H125.05V316.718H197.625V206.904Z" fill="#86A7B7"></path><path d="M197.625 316.718C197.625 316.718 197.625 316.524 197.625 316.135C197.625 315.746 197.625 315.259 197.625 314.579C197.625 313.217 197.625 311.174 197.625 308.548C197.625 303.296 197.625 295.611 197.528 285.885C197.528 266.529 197.43 239.099 197.43 206.806L197.625 207.001C175.473 207.001 150.893 207.001 125.05 207.001L125.341 206.709C125.341 248.145 125.341 286.274 125.244 316.524L125.05 316.329C147.201 316.329 165.272 316.427 177.902 316.427C184.217 316.427 189.172 316.427 192.476 316.524C194.127 316.524 195.39 316.524 196.265 316.524C197.139 316.718 197.625 316.718 197.625 316.718C197.625 316.718 197.236 316.718 196.362 316.718C195.487 316.718 194.224 316.718 192.573 316.718C189.172 316.718 184.314 316.718 177.999 316.816C165.369 316.816 147.201 316.913 125.05 316.913H124.856V316.718C124.856 286.566 124.856 248.34 124.758 206.904V206.612H125.05C150.893 206.612 175.473 206.612 197.625 206.612H197.819V206.806C197.819 239.196 197.722 266.626 197.722 285.982C197.722 295.611 197.625 303.296 197.625 308.548C197.625 311.174 197.625 313.12 197.625 314.481C197.625 315.162 197.625 315.649 197.625 316.038C197.625 316.524 197.625 316.718 197.625 316.718Z" fill="#455A64"></path><path d="M209.866 191.73C209.963 191.73 209.283 192.703 208.118 194.259C206.952 195.718 205.397 197.761 203.551 199.998C201.705 202.235 200.054 204.18 198.791 205.542C197.528 206.904 196.75 207.779 196.653 207.682C196.556 207.682 197.333 206.709 198.499 205.25C199.762 203.694 201.414 201.749 203.163 199.609C204.911 197.469 206.466 195.523 207.826 193.967C209.089 192.508 209.866 191.633 209.866 191.73Z" fill="#455A64"></path><path d="M198.013 316.329C201.608 322.068 205.883 327.418 210.643 332.184Z" fill="#86A7B7"></path><path d="M210.643 332.184C210.643 332.184 209.769 331.503 208.409 330.141C207.146 328.877 205.397 326.931 203.648 324.792C201.9 322.554 200.442 320.512 199.471 318.956C198.499 317.399 197.916 316.427 198.013 316.329C198.11 316.329 198.693 317.205 199.762 318.761C200.831 320.22 202.288 322.263 204.037 324.5C205.786 326.64 207.437 328.585 208.7 329.947C209.963 331.309 210.643 332.184 210.643 332.184Z" fill="#455A64"></path><path d="M113.003 331.795C117.18 326.542 121.455 321.387 125.633 316.135Z" fill="#86A7B7"></path><path d="M125.633 316.135C125.73 316.232 123.01 319.831 119.512 324.111C116.015 328.391 113.1 331.892 113.003 331.795C112.906 331.698 115.626 328.099 119.124 323.819C122.621 319.442 125.536 316.038 125.633 316.135Z" fill="#455A64"></path><path d="M113.003 191.73C113.1 191.633 115.82 194.94 119.123 199.122C122.427 203.305 124.953 206.709 124.856 206.806C124.758 206.904 122.038 203.596 118.735 199.414C115.432 195.231 112.906 191.827 113.003 191.73Z" fill="#455A64"></path><path d="M174.988 229.178H150.699V298.238H174.988V229.178Z" fill="#455A64"></path><path d="M633.433 193.286H536.86V333.448H633.433V193.286Z" fill="#455A64"></path><path d="M628.575 193.286H532.003V333.448H628.575V193.286Z" fill="#6A8998"></path><path d="M616.625 208.46H544.05V318.275H616.625V208.46Z" fill="#86A7B7"></path><path d="M616.625 318.275C616.625 318.275 616.625 318.08 616.625 317.691C616.625 317.302 616.625 316.816 616.625 316.135C616.625 314.773 616.625 312.731 616.625 310.104C616.625 304.852 616.625 297.168 616.528 287.441C616.528 268.085 616.43 240.655 616.43 208.363L616.625 208.557C594.473 208.557 569.893 208.557 544.05 208.557L544.341 208.265C544.341 249.701 544.341 287.83 544.244 318.08L544.05 317.886C566.201 317.886 584.272 317.983 596.902 317.983C603.217 317.983 608.172 317.983 611.476 318.08C613.127 318.08 614.39 318.08 615.265 318.08C616.139 318.275 616.625 318.275 616.625 318.275C616.625 318.275 616.236 318.275 615.362 318.275C614.487 318.275 613.224 318.275 611.573 318.275C608.172 318.275 603.314 318.275 596.999 318.372C584.369 318.372 566.201 318.469 544.05 318.469H543.856V318.275C543.856 288.122 543.856 249.896 543.758 208.46V208.168H544.05C569.893 208.168 594.473 208.168 616.625 208.168H616.819V208.363C616.819 240.753 616.722 268.182 616.722 287.538C616.722 297.168 616.625 304.852 616.625 310.104C616.625 312.731 616.625 314.676 616.625 316.038C616.625 316.718 616.625 317.205 616.625 317.594C616.625 318.08 616.625 318.275 616.625 318.275Z" fill="#455A64"></path><path d="M628.866 193.286C628.963 193.286 628.283 194.259 627.117 195.815C625.952 197.274 624.397 199.317 622.551 201.554C620.705 203.791 619.054 205.736 617.791 207.098C616.528 208.46 615.75 209.335 615.653 209.238C615.556 209.238 616.333 208.265 617.499 206.806C618.762 205.25 620.414 203.305 622.163 201.165C623.911 199.025 625.466 197.08 626.826 195.523C628.089 194.064 628.866 193.189 628.866 193.286Z" fill="#455A64"></path><path d="M617.013 317.886C620.608 323.624 624.883 328.974 629.644 333.74Z" fill="#86A7B7"></path><path d="M629.644 333.74C629.644 333.74 628.769 333.059 627.409 331.698C626.146 330.433 624.397 328.488 622.648 326.348C620.9 324.111 619.442 322.068 618.471 320.512C617.499 318.956 616.916 317.983 617.013 317.886C617.111 317.886 617.694 318.761 618.762 320.317C619.831 321.776 621.288 323.819 623.037 326.056C624.786 328.196 626.437 330.141 627.701 331.503C628.964 332.865 629.644 333.74 629.644 333.74Z" fill="#455A64"></path><path d="M532.003 333.351C536.18 328.099 540.455 322.944 544.633 317.691Z" fill="#86A7B7"></path><path d="M544.633 317.691C544.73 317.788 542.01 321.387 538.512 325.667C535.014 329.947 532.1 333.448 532.003 333.351C531.905 333.254 534.626 329.655 538.123 325.375C541.621 320.998 544.536 317.594 544.633 317.691Z" fill="#455A64"></path><path d="M532.003 193.286C532.1 193.189 534.82 196.496 538.123 200.678C541.427 204.861 543.953 208.265 543.856 208.363C543.758 208.46 541.038 205.153 537.735 200.97C534.432 196.788 531.906 193.383 532.003 193.286Z" fill="#455A64"></path><path d="M593.988 230.734H569.699V299.794H593.988V230.734Z" fill="#455A64"></path><path d="M497.908 436.746H269.205V577.492H497.908V436.746Z" fill="#455A64"></path><path d="M434.466 427.603H319.24V436.746H434.466V427.603Z" fill="#263238"></path><path d="M406.777 417.779H343.432V430.132H406.777V417.779Z" fill="#263238"></path><path d="M506.458 231.901H240.448V417.39H506.458V231.901Z" fill="#263238"></path><path d="M500.629 236.667H246.277V411.846H500.629V236.667Z" fill="#455A64"></path><path d="M497.908 417.487C497.908 417.585 440.781 417.779 370.344 417.779C299.906 417.779 242.779 417.682 242.779 417.487C242.779 417.39 299.906 417.196 370.344 417.196C440.781 417.196 497.908 417.293 497.908 417.487Z" fill="#455A64"></path><path d="M434.077 427.992C434.077 428.089 408.526 428.284 377.047 428.284C345.569 428.284 320.017 428.187 320.017 427.992C320.017 427.895 345.569 427.7 377.047 427.7C408.526 427.7 434.077 427.895 434.077 427.992Z" fill="#455A64"></path><path d="M727 577.492C727 577.589 577.77 577.784 393.855 577.784C209.844 577.784 60.6135 577.686 60.6135 577.492C60.6135 577.297 209.747 577.2 393.855 577.2C577.867 577.2 727 577.395 727 577.492Z" fill="#263238"></path><path d="M575.535 594.708C575.535 594.805 484.598 595 372.481 595C260.364 595 169.427 594.903 169.427 594.708C169.427 594.611 260.267 594.416 372.481 594.416C484.598 594.514 575.535 594.611 575.535 594.708Z" fill="#263238"></path><path d="M537.742 457.95C537.742 457.95 581.17 467.191 585.737 473.416L577.478 488.006L565.237 483.726L537.742 457.95Z" fill="#263238"></path><path d="M565.237 481.1C565.237 479.252 533.079 453.865 529.29 452.017C522.003 448.418 509.276 447.835 503.835 455.713C500.629 460.382 453.994 512.809 453.994 512.809L538.228 499.775L565.237 481.1Z" fill="#263238"></path><path d="M674.05 439.47C674.05 439.47 668.318 428.187 663.752 425.366C659.283 422.545 650.636 417.876 650.636 417.876H627.513C627.513 417.876 612.843 419.919 605.362 422.253C603.905 422.74 602.836 423.907 602.447 425.366L593.315 452.114L579.907 489.562L581.267 490.34L674.05 439.47Z" fill="#025757"></path><path d="M642.281 429.938C642.281 429.938 641.795 430.035 641.018 430.035C640.143 430.035 638.978 430.035 637.52 430.132C634.606 430.132 630.525 430.229 626.056 430.424C621.587 430.521 617.506 430.716 614.592 430.813C613.231 430.91 612.066 430.91 611.094 430.91C610.317 430.91 609.831 430.91 609.831 430.91C609.831 430.91 610.317 430.813 611.094 430.716C611.871 430.618 613.134 430.521 614.592 430.424C617.506 430.229 621.587 430.035 626.056 429.84C630.525 429.743 634.606 429.743 637.52 429.743C638.978 429.743 640.143 429.84 641.018 429.84C641.795 429.84 642.281 429.938 642.281 429.938Z" fill="white"></path><g opacity="0.3"><path d="M664.724 418.752L646.07 419.044C643.058 421.378 639.949 423.907 638.395 427.409C636.84 430.91 637.423 435.676 640.629 437.719C641.309 438.108 641.989 438.4 642.475 439.081C642.961 439.859 642.864 440.832 642.767 441.707C642.378 445.306 641.989 449.002 642.572 452.601C643.155 456.2 644.613 459.799 647.527 462.133C650.345 464.37 654.62 465.051 657.729 463.106C660.935 461.063 662.003 457.075 662.683 453.282C664.821 441.901 665.015 430.327 664.724 418.752Z" fill="black"></path></g><path d="M518.7 406.885C518.7 406.885 510.442 399.979 510.344 399.396L510.83 398.326C513.648 397.353 521.712 399.396 521.712 399.396L531.913 407.955L523.655 410.192L518.7 406.885Z" fill="#263238"></path><path d="M520.351 406.107C520.254 406.204 518.117 404.551 515.494 402.508C512.87 400.368 510.83 398.617 510.927 398.52C511.024 398.423 513.162 400.076 515.785 402.119C518.408 404.259 520.448 406.01 520.351 406.107Z" fill="#025757"></path><path d="M541.434 413.986L538.131 410.29L534.147 404.551C534.147 404.551 525.209 398.131 524.723 398.131C524.238 398.131 516.951 399.687 516.951 399.687C516.951 399.687 516.465 401.341 518.214 402.022C519.963 402.703 523.46 402.994 523.46 402.994C523.46 402.994 523.752 403.967 523.557 404.551C523.363 405.037 520.74 405.523 520.74 405.523C520.74 405.523 518.117 405.329 517.728 406.496C517.34 407.663 517.825 409.998 517.825 409.998C517.825 409.998 516.854 413.402 518.214 414.861L519.477 416.32C519.477 416.32 520.448 418.752 521.614 419.627C522.683 420.503 525.986 422.351 525.986 422.351L532.301 421.086L533.564 422.059L541.434 413.986Z" fill="#FFBE9D"></path><path d="M603.905 423.032L570.289 439.47L541.434 413.305L531.816 422.545C531.816 422.545 554.841 457.95 566.403 460.09C574.855 461.647 593.315 452.114 593.315 452.114L603.905 423.032Z" fill="#025757"></path><path d="M620.81 373.814C618.769 379.164 618.575 381.888 617.409 389.085C617.312 389.961 616.438 397.839 616.729 400.368C617.021 402.995 619.158 406.107 621.393 407.469C622.558 408.15 626.736 409.9 626.736 409.9L626.25 418.363L648.596 419.433C648.596 419.433 649.956 400.66 649.47 391.614" fill="#FFBE9D"></path><path d="M619.547 384.416C619.838 380.429 620.13 376.343 621.198 372.453C622.364 368.562 624.404 364.866 627.61 362.434C630.331 360.391 633.731 360.002 637.229 359.613C642.184 359.127 646.944 360.391 651.122 363.212C654.911 365.741 659.769 371.48 661.032 378.97C661.226 380.137 661.323 381.207 661.323 382.374L661.42 389.28L648.305 406.496C644.321 410.484 637.326 410.29 632.857 406.885C628.388 403.481 626.25 397.548 626.25 391.906C626.25 390.35 626.347 388.794 626.056 387.334C625.765 385.875 624.987 384.319 623.627 383.541C622.267 382.763 620.324 383.055 619.547 384.416Z" fill="#263238"></path><path d="M619.741 392.198C619.741 392.198 619.935 392.392 620.227 392.684C620.615 392.976 621.101 393.462 621.976 393.657C622.364 393.754 622.947 393.851 623.433 393.657C623.919 393.462 624.404 393.17 624.793 392.684C625.57 391.809 625.959 390.642 626.25 389.377C626.542 388.113 626.445 386.848 626.056 385.778C625.667 384.708 624.793 383.93 624.113 383.541C623.336 383.152 622.656 383.055 622.17 383.055C621.684 383.055 621.49 383.249 621.49 383.249C621.49 383.347 622.559 382.957 623.919 383.833C624.599 384.222 625.279 385 625.57 385.973C625.959 386.945 625.959 388.113 625.765 389.28C625.473 390.447 625.085 391.614 624.404 392.392C623.724 393.17 622.85 393.462 622.073 393.268C621.295 393.073 620.713 392.684 620.421 392.49C620.032 392.295 619.741 392.101 619.741 392.198Z" fill="#EB996E"></path><path d="M621.781 390.447C621.781 390.544 622.073 390.544 622.558 390.252C622.947 390.058 623.433 389.474 623.53 388.696C623.53 387.918 623.141 387.334 622.85 387.043C622.461 386.751 622.17 386.751 622.17 386.751C622.17 386.848 622.364 386.945 622.558 387.334C622.753 387.626 623.044 388.113 623.044 388.696C623.044 389.28 622.656 389.766 622.461 389.961C621.976 390.252 621.781 390.35 621.781 390.447Z" fill="#EB996E"></path><path d="M611.969 401.633C611.969 401.633 612.066 401.73 612.163 401.827C612.357 401.925 612.649 402.022 613.037 402.022C613.814 402.022 614.98 401.438 615.563 400.076C616.049 398.715 615.563 396.964 614.883 395.31C614.592 394.435 614.203 393.657 614.106 392.684C614.009 391.809 614.106 390.836 614.689 390.058C615.855 388.502 617.701 387.529 618.769 386.07C619.935 384.611 620.421 382.957 620.615 381.596C620.81 380.234 620.713 379.067 620.518 378.386C620.421 377.997 620.324 377.705 620.227 377.51C620.13 377.316 620.13 377.219 620.13 377.219C620.032 377.219 620.712 378.872 620.227 381.498C620.032 382.763 619.449 384.319 618.381 385.681C617.895 386.362 617.215 386.945 616.438 387.529C615.66 388.113 614.883 388.793 614.203 389.669C613.523 390.544 613.426 391.711 613.523 392.684C613.717 393.657 614.009 394.629 614.397 395.408C615.077 397.061 615.563 398.617 615.175 399.882C614.786 401.049 613.717 401.73 613.037 401.73C612.357 401.827 611.969 401.535 611.969 401.633Z" fill="#263238"></path><path d="M646.653 385.292C649.179 381.985 654.037 380.72 657.729 382.471C659.575 383.346 661.129 385.097 661.129 387.14L660.255 388.307C657.049 389.377 654.231 391.711 652.579 394.727C652.094 395.602 651.608 396.575 650.928 397.353C650.248 398.131 649.179 398.715 648.11 398.423C647.333 398.228 646.75 397.548 646.361 396.867C644.127 393.462 644.224 388.599 646.653 385.292Z" fill="#025757"></path><path d="M645.876 383.833C645.876 383.736 644.418 384.027 642.087 383.833C639.755 383.638 636.452 382.763 633.148 380.429C629.845 378.094 627.319 374.982 625.862 372.453C624.307 369.924 623.627 368.173 623.53 368.27C623.53 368.27 623.627 368.756 623.919 369.535C624.21 370.313 624.696 371.48 625.473 372.744C626.93 375.371 629.456 378.678 632.857 381.109C636.257 383.444 639.658 384.319 641.989 384.416C643.155 384.416 644.127 384.319 644.807 384.222C645.487 384.027 645.876 383.833 645.876 383.833Z" fill="#025757"></path><path d="M620.615 377.511C620.615 377.511 620.81 377.997 621.198 378.775C621.587 379.553 622.364 380.72 623.336 381.985C625.279 384.514 628.485 387.432 632.565 388.696C636.549 389.961 640.143 389.085 642.378 387.918C643.544 387.334 644.418 386.654 644.904 386.167C645.487 385.681 645.681 385.292 645.681 385.292C645.584 385.195 644.418 386.362 642.184 387.432C639.949 388.502 636.451 389.183 632.565 387.918C628.679 386.751 625.57 383.93 623.53 381.596C621.684 379.261 620.712 377.413 620.615 377.511Z" fill="#025757"></path><path d="M640.144 432.758C640.144 431.007 640.824 429.257 641.698 427.7C643.447 424.296 645.584 421.086 647.139 417.585C648.693 414.083 649.762 410.192 649.179 406.399C648.402 401.633 645.196 397.061 646.264 392.295C646.944 389.377 649.276 387.043 651.996 385.875C654.717 384.708 657.826 384.611 660.838 385.195C667.347 387.432 672.885 393.657 674.731 400.368C676.48 407.08 675.702 414.18 673.759 420.794C672.788 424.101 671.525 427.7 672.593 431.007C673.079 432.369 673.954 433.634 674.536 434.898C675.119 436.26 675.508 437.816 675.022 439.178C674.536 440.54 672.788 441.512 671.525 440.734C672.01 442.777 672.205 444.917 671.427 446.862C670.65 448.807 668.513 450.266 666.473 449.683C666.667 452.99 665.793 456.491 663.364 458.631C660.158 461.452 654.814 461.16 651.414 458.534C647.916 455.908 646.167 451.628 645.681 447.348C645.293 443.36 645.779 439.372 646.459 435.482C645.973 436.746 644.224 437.524 642.961 437.038C641.115 436.454 640.144 434.509 640.144 432.758Z" fill="#263238"></path><path d="M682.892 426.436C682.892 426.436 682.795 426.63 682.697 427.02C682.6 427.409 682.212 427.895 681.629 428.284C681.046 428.673 680.171 429.062 679.103 428.965C678.034 428.965 676.965 428.381 676.188 427.311C675.411 426.241 674.925 424.782 674.925 423.226C674.925 421.67 675.314 420.016 675.799 418.266C676.965 414.861 677.84 410.873 677.743 406.691C677.645 402.508 676.48 398.52 674.731 395.31C672.982 392.101 670.553 389.766 668.318 388.21C666.084 386.654 663.946 385.778 662.489 385.389C661.712 385.195 661.129 385.097 660.74 385C660.352 384.903 660.157 384.903 660.157 384.903C660.157 385 661.032 385.097 662.392 385.486C663.849 385.973 665.89 386.751 668.124 388.404C670.359 389.961 672.593 392.295 674.342 395.408C676.091 398.52 677.16 402.411 677.257 406.496C677.451 410.679 676.577 414.472 675.411 417.876C674.925 419.627 674.439 421.281 674.536 422.934C674.634 424.588 675.119 426.144 675.994 427.214C676.868 428.381 678.131 428.965 679.2 428.965C680.366 428.965 681.24 428.576 681.92 428.09C682.503 427.603 682.892 427.02 682.989 426.63C682.892 426.63 682.892 426.436 682.892 426.436Z" fill="#263238"></path><path d="M566.694 451.531C566.597 451.531 566.597 450.85 566.791 449.683C566.986 448.516 567.374 447.057 567.86 445.403C568.929 442.096 570.192 439.567 570.289 439.664C570.483 439.664 569.415 442.291 568.346 445.598C567.763 447.251 567.374 448.71 567.083 449.78C566.889 450.85 566.791 451.531 566.694 451.531Z" fill="#263238"></path><path d="M608.762 439.372C608.568 439.372 609.54 435.482 608.762 430.716C607.985 425.95 605.848 422.545 606.042 422.545C606.042 422.545 606.722 423.323 607.402 424.782C608.082 426.241 608.859 428.284 609.248 430.716C609.637 433.147 609.54 435.384 609.345 436.941C609.151 438.497 608.859 439.372 608.762 439.372Z" fill="#263238"></path><path d="M567.083 479.155C567.083 479.155 566.597 478.863 565.82 478.279C564.945 477.696 563.877 476.82 562.517 475.848C559.699 473.805 555.813 470.984 551.635 467.969C547.36 464.954 543.571 462.23 540.657 460.188C539.296 459.215 538.228 458.437 537.353 457.853C536.576 457.27 536.188 456.978 536.188 456.978C536.188 456.978 536.673 457.172 537.451 457.756C538.228 458.242 539.394 459.02 540.851 459.993C543.668 461.938 547.652 464.565 551.927 467.677C556.201 470.79 559.991 473.611 562.711 475.75C564.071 476.82 565.14 477.696 565.917 478.279C566.694 478.766 567.083 479.057 567.083 479.155Z" fill="#025757"></path><path d="M565.334 494.523C565.334 494.62 565.043 494.815 564.557 495.009C564.071 495.107 563.682 495.107 563.682 495.009C563.682 494.912 563.974 494.718 564.46 494.523C564.848 494.426 565.237 494.426 565.334 494.523Z" fill="#263238"></path><path d="M468.671 561.82L459.351 561.452L458.728 577.294L468.047 577.662L468.671 561.82Z" fill="#263238"></path><path d="M572.232 575.158H562.905V594.806H572.232V575.158Z" fill="#263238"></path><path d="M664.529 567.571H655.202V586.246H664.529V567.571Z" fill="#263238"></path><path d="M666.278 574.866L703.974 448.807L691.441 439.47C691.441 439.47 603.225 439.47 599.241 442.68C595.258 445.889 577.09 485.088 577.09 485.088C577.09 485.088 542.891 468.164 482.655 465.635C482.655 465.635 458.658 465.246 455.355 469.914C452.148 474.583 452.051 568.349 452.051 568.349L572.718 587.121L666.278 574.866Z" fill="#05AEAE"></path><path d="M704.46 450.753C704.46 450.753 704.363 450.753 704.072 450.753C703.78 450.753 703.391 450.753 702.808 450.85C701.74 450.85 700.088 450.947 698.145 451.044C694.065 451.239 688.138 451.434 680.851 451.628C666.181 451.92 646.07 452.406 623.821 452.795C621.004 452.893 618.284 452.99 615.563 452.99C614.203 452.99 612.843 453.087 611.483 453.087C610.803 453.087 610.123 453.087 609.54 453.282C608.957 453.476 608.374 453.671 607.888 454.06C607.402 454.449 607.014 454.935 606.625 455.422C606.333 456.005 606.042 456.589 605.751 457.172C605.168 458.34 604.585 459.409 604.002 460.577C602.836 462.814 601.767 465.051 600.699 467.191C596.424 475.848 592.732 483.726 589.623 490.34C586.611 496.955 584.085 502.304 582.433 506.098C581.559 507.946 580.976 509.405 580.49 510.378C580.296 510.864 580.102 511.253 580.005 511.447C579.907 511.739 579.81 511.837 579.81 511.837C579.81 511.837 579.81 511.739 579.907 511.447C580.004 511.156 580.199 510.767 580.393 510.28C580.782 509.308 581.462 507.849 582.239 506C583.891 502.207 586.222 496.857 589.331 490.146C592.343 483.532 596.035 475.556 600.31 466.899C601.379 464.759 602.447 462.522 603.613 460.285C604.196 459.118 604.779 458.048 605.362 456.881C605.653 456.297 605.945 455.713 606.236 455.13C606.528 454.546 607.014 453.962 607.597 453.573C608.179 453.184 608.762 452.893 609.442 452.698C610.123 452.503 610.803 452.503 611.483 452.503C612.843 452.503 614.203 452.406 615.563 452.406C618.284 452.309 621.004 452.212 623.821 452.212C668.027 451.531 701.643 450.85 704.46 450.753Z" fill="#263238"></path><path d="M575.73 484.991C575.73 484.991 575.924 485.088 576.215 485.185C576.313 485.283 576.604 485.283 576.798 485.477C576.993 485.672 577.187 485.769 577.478 485.964C578.45 486.839 579.422 488.59 580.005 491.021C581.073 495.982 580.393 503.277 580.005 512.42C579.519 521.563 578.741 532.652 577.867 545.199C576.993 557.747 575.827 571.753 574.855 586.927V587.219H574.564C570.095 586.732 565.334 586.149 560.476 585.565H560.282V585.371C561.254 571.948 562.322 557.455 563.488 542.476C564.265 531.387 565.14 520.591 565.917 510.086C566.014 507.46 566.111 504.931 565.82 502.304C565.528 499.775 564.945 497.247 563.78 495.107C562.711 492.869 561.059 490.924 559.116 489.465C557.173 488.006 554.938 486.936 552.704 486.158C548.235 484.504 543.571 483.726 539.102 482.656C534.633 481.684 530.358 480.808 526.083 480.03C517.728 478.377 509.859 477.015 502.669 475.848C488.29 473.513 476.632 472.152 468.568 471.276C464.487 470.887 461.378 470.498 459.241 470.303C458.172 470.206 457.395 470.109 456.812 470.012C456.229 469.914 456.035 469.914 456.035 469.914C456.035 469.914 456.326 469.914 456.909 470.012C457.492 470.012 458.269 470.109 459.338 470.206C461.475 470.401 464.584 470.693 468.665 471.082C476.729 471.86 488.484 473.221 502.863 475.459C510.053 476.626 517.922 477.89 526.278 479.544C530.455 480.322 534.827 481.197 539.297 482.17C543.766 483.143 548.332 484.018 552.898 485.672C555.133 486.547 557.367 487.617 559.408 489.076C561.448 490.535 563.1 492.578 564.265 494.815C565.431 497.149 566.014 499.678 566.306 502.207C566.597 504.833 566.597 507.362 566.403 509.989C565.723 520.493 564.848 531.29 563.974 542.379C562.808 557.358 561.739 571.85 560.768 585.273L560.574 584.982C565.431 585.565 570.192 586.149 574.661 586.635L574.37 586.83C575.438 571.656 576.507 557.649 577.478 545.102C578.45 532.555 579.227 521.563 579.713 512.42C580.199 503.277 580.976 495.982 579.907 491.119C579.422 488.687 578.45 486.936 577.478 486.061C577.187 485.866 576.993 485.672 576.798 485.574C576.604 485.38 576.41 485.38 576.313 485.283C575.924 485.088 575.73 484.991 575.73 484.991Z" fill="#263238"></path><path d="M570.678 488.492C570.678 488.687 568.637 488.687 566.306 489.66C563.974 490.535 562.517 491.994 562.419 491.897C562.322 491.8 563.682 490.146 566.111 489.173C568.54 488.201 570.678 488.395 570.678 488.492Z" fill="#263238"></path><path d="M599.63 445.987C599.727 445.889 601.476 447.737 603.516 449.975C605.556 452.309 607.111 454.254 607.014 454.352C606.916 454.449 605.168 452.601 603.127 450.364C601.087 448.029 599.533 446.084 599.63 445.987Z" fill="#263238"></path><path d="M608.277 448.029C608.374 447.932 609.151 449.002 609.637 450.558C610.123 452.115 610.025 453.379 609.928 453.379C609.734 453.379 609.637 452.115 609.151 450.656C608.665 449.294 608.082 448.127 608.277 448.029Z" fill="#263238"></path><path d="M543.863 415.25C543.96 415.348 543.377 415.931 542.503 416.807C541.628 417.779 540.365 419.044 539.005 420.405C536.188 423.129 533.856 425.269 533.661 425.172C533.661 425.172 534.147 424.588 535.119 423.615C535.993 422.74 537.256 421.475 538.616 420.016C539.977 418.655 541.337 417.39 542.211 416.515C543.183 415.737 543.766 415.25 543.863 415.25Z" fill="white"></path><path d="M568.637 459.896C568.54 459.896 569.317 455.13 570.483 449.294C571.649 443.458 572.718 438.789 572.912 438.789C573.009 438.789 572.232 443.555 571.066 449.391C569.803 455.227 568.734 459.896 568.637 459.896Z" fill="white"></path><path d="M605.362 441.318C605.265 441.318 605.362 440.345 605.362 438.692C605.362 437.135 605.362 434.898 604.973 432.467C604.585 430.035 604.099 427.895 603.516 426.436C603.03 424.88 602.641 424.004 602.739 424.004C602.836 424.004 603.322 424.88 603.904 426.339C604.487 427.798 605.168 430.035 605.459 432.467C605.848 434.898 605.848 437.135 605.653 438.789C605.653 440.345 605.459 441.318 605.362 441.318Z" fill="white"></path><path d="M206.832 481.1C206.832 479.252 238.99 453.865 242.779 452.017C250.066 448.418 262.793 447.835 268.234 455.713C271.44 460.382 318.074 512.809 318.074 512.809L233.841 499.775L206.832 481.1Z" fill="#263238"></path><path d="M203.529 472.151L238.504 459.993L208.872 479.836L202.363 471.471" fill="#263238"></path><path d="M114.826 373.036L122.501 425.269L145.041 423.031L143.778 410.192C143.778 410.192 151.939 410.581 152.911 402.897C153.494 397.936 147.762 361.558 147.762 361.558L114.826 373.036Z" fill="#FFBE9D"></path><path d="M151.162 364.768C147.762 366.325 147.859 372.161 147.859 372.161L144.167 385.194C141.058 383.444 137.269 384.124 137.269 389.182C137.269 392.879 141.835 392.879 141.835 392.879C139.892 397.645 138.726 401.535 135.52 406.301C132.12 411.457 129.885 412.235 125.513 413.013L120.655 413.791C120.655 413.791 117.061 406.399 109.774 387.626C101.71 366.811 127.553 365.838 131.44 359.613C137.755 349.497 161.849 360.002 151.162 364.768Z" fill="#263238"></path><path d="M110.648 389.572C106.082 387.432 104.625 379.748 106.276 374.69C108.025 369.632 112.591 365.741 117.838 364.866C118.518 364.768 119.295 364.671 119.878 364.282C120.752 363.796 121.238 362.726 121.821 361.85C124.833 356.501 127.748 351.248 134.548 350.178C135.617 349.984 136.88 349.789 139.018 350.567C140.086 350.956 141.738 352.513 142.127 353.583C143.292 352.804 144.555 351.929 145.916 351.54C147.276 351.151 148.927 351.151 150.093 351.929C151.259 352.707 151.939 354.458 151.259 355.723C153.591 355.236 156.02 356.792 156.7 359.03C157.38 361.267 154.368 363.407 154.077 363.601C154.077 363.601 156.408 367.103 152.522 370.021C150.968 371.188 148.539 370.41 148.247 370.313" fill="#263238"></path><path d="M127.748 392.198C127.845 392.198 128.428 393.949 128.233 396.186C128.039 398.423 127.359 400.076 127.165 400.076C126.97 399.979 127.456 398.326 127.65 396.186C127.748 393.949 127.553 392.198 127.748 392.198Z" fill="#025757"></path><path d="M129.982 389.182C130.176 389.182 130.468 390.933 130.371 393.073C130.274 395.213 129.885 396.867 129.691 396.867C129.496 396.867 129.691 395.116 129.788 393.073C129.885 390.933 129.885 389.182 129.982 389.182Z" fill="#025757"></path><path d="M136.492 379.456C136.589 379.553 136.006 380.039 135.326 381.109C134.646 382.179 133.966 383.736 133.577 385.681C133.188 387.529 133.091 389.28 132.897 390.544C132.8 391.809 132.703 392.587 132.605 392.587C132.508 392.587 132.508 391.809 132.411 390.544C132.411 389.28 132.508 387.432 132.897 385.584C133.286 383.638 134.16 381.985 134.937 380.915C135.812 379.845 136.492 379.358 136.492 379.456Z" fill="#025757"></path><path d="M138.726 373.133C138.823 373.133 139.115 373.62 139.406 374.495C139.698 375.37 139.892 376.635 139.698 378.094C139.601 379.553 139.115 380.72 138.629 381.596C138.143 382.374 137.755 382.86 137.755 382.763C137.56 382.666 138.823 380.72 139.115 378.094C139.406 375.273 138.532 373.133 138.726 373.133Z" fill="#025757"></path><path d="M113.952 390.155C113.854 390.35 113.174 390.155 112.3 389.863C111.426 389.571 110.843 389.182 110.94 388.988C111.037 388.793 111.717 388.988 112.591 389.28C113.369 389.571 114.049 389.961 113.952 390.155Z" fill="#025757"></path><path d="M123.959 382.957C124.153 382.957 124.153 384.125 123.667 385.292C123.181 386.556 122.307 387.237 122.21 387.14C122.113 387.043 122.696 386.167 123.181 385C123.667 383.93 123.764 382.957 123.959 382.957Z" fill="#025757"></path><path d="M127.068 380.623C127.262 380.623 127.165 381.985 126.485 383.444C125.805 384.903 124.736 385.875 124.639 385.778C124.542 385.681 125.319 384.611 125.902 383.249C126.582 381.887 126.873 380.623 127.068 380.623Z" fill="#025757"></path><path d="M140.281 356.306C140.281 356.403 139.795 356.014 138.92 355.722C138.046 355.431 136.686 355.139 135.034 355.333C133.383 355.528 131.439 356.209 129.788 357.668C128.136 359.127 126.776 361.169 125.902 363.601C125.319 365.352 124.93 367.103 124.736 368.756V369.145L124.444 369.048C122.696 368.464 120.85 368.27 119.295 368.562C117.741 368.756 116.38 369.243 115.312 369.826C113.174 370.896 112.3 372.063 112.203 371.966C112.203 371.966 112.397 371.674 112.883 371.188C113.369 370.702 114.049 370.118 115.117 369.534C116.186 368.951 117.546 368.367 119.198 368.173C120.85 367.881 122.696 367.978 124.639 368.659L124.25 368.854C124.444 367.2 124.736 365.352 125.416 363.504C126.29 360.975 127.748 358.835 129.496 357.376C131.245 355.917 133.383 355.236 135.034 355.042C136.783 354.847 138.143 355.236 139.018 355.625C139.406 355.82 139.795 356.014 139.989 356.209C140.183 356.209 140.281 356.306 140.281 356.306Z" fill="#025757"></path><path d="M152.425 357.376C152.425 357.376 153.008 357.084 153.785 357.765C154.174 358.057 154.465 358.64 154.562 359.321C154.562 360.002 154.271 360.878 153.494 361.364C152.814 361.948 151.842 362.239 150.871 362.142C149.899 362.045 148.83 361.656 147.859 361.169C146.887 360.683 145.916 360.099 144.847 359.71C143.778 359.321 142.612 359.127 141.349 359.03C138.92 358.932 136.589 359.613 134.646 360.489C132.703 361.461 131.245 362.628 130.079 363.796C127.748 366.033 126.679 367.881 126.582 367.784C126.582 367.784 126.776 367.297 127.262 366.519C127.748 365.741 128.622 364.671 129.691 363.504C130.857 362.337 132.411 361.072 134.354 360.002C136.297 359.03 138.726 358.349 141.252 358.446C142.515 358.543 143.778 358.738 144.944 359.127C146.11 359.516 147.082 360.197 148.053 360.683C149.025 361.169 149.899 361.558 150.871 361.656C151.745 361.753 152.619 361.461 153.202 361.072C153.785 360.586 154.174 359.905 154.174 359.321C154.174 358.738 153.882 358.251 153.591 357.96C153.008 357.279 152.425 357.473 152.425 357.376Z" fill="#025757"></path><path d="M190.413 469.525C190.413 469.525 231.898 466.413 245.208 470.012L245.888 471.762C245.888 471.762 200.128 480.225 189.344 486.547L190.413 469.525Z" fill="#025757"></path><path d="M98.0182 439.47C98.0182 439.47 103.75 428.187 108.317 425.366C112.786 422.545 121.433 417.876 121.433 417.876H144.555C144.555 417.876 164.667 423.81 169.427 425.658C178.754 429.257 188.372 449.391 188.372 449.391L206.832 481.1L190.801 490.438L98.0182 439.47Z" fill="#025757"></path><path d="M304.487 577.539L313.807 577.171L313.072 558.511L303.753 558.879L304.487 577.539Z" fill="#263238"></path><path d="M200.087 594.762H209.414V575.114H200.087V594.762Z" fill="#263238"></path><path d="M108.87 585.711H118.197V567.036H108.87V585.711Z" fill="#263238"></path><path d="M106.082 574.282L68.3859 448.224L80.9189 438.886C80.9189 438.886 169.136 438.886 173.119 442.096C177.102 445.306 195.27 484.504 195.27 484.504C195.27 484.504 229.469 467.58 289.705 465.051C289.705 465.051 313.702 464.662 317.006 469.331C320.212 473.999 320.309 567.765 320.309 567.765L199.642 586.538L106.082 574.282Z" fill="#05AEAE"></path><path d="M67.9001 450.266C70.7176 450.364 104.333 450.947 148.636 451.823C151.453 451.92 154.174 452.017 156.894 452.017C158.254 452.017 159.615 452.114 160.975 452.114C161.655 452.114 162.335 452.114 163.015 452.309C163.695 452.503 164.375 452.795 164.861 453.184C165.444 453.573 165.832 454.157 166.221 454.741C166.513 455.324 166.804 455.908 167.095 456.491C167.678 457.659 168.261 458.826 168.844 459.896C170.01 462.133 171.079 464.37 172.148 466.51C176.422 475.167 180.017 483.045 183.126 489.757C186.138 496.371 188.567 501.818 190.218 505.611C190.996 507.459 191.676 508.918 192.064 509.891C192.259 510.377 192.453 510.766 192.55 511.058C192.647 511.35 192.744 511.447 192.647 511.447C192.647 511.447 192.55 511.35 192.453 511.058C192.356 510.766 192.161 510.377 191.967 509.988C191.481 509.016 190.898 507.557 190.024 505.709C188.275 502.012 185.846 496.565 182.835 489.951C179.726 483.337 176.034 475.458 171.759 466.802C170.69 464.662 169.621 462.425 168.456 460.188C167.873 459.02 167.29 457.95 166.707 456.783C166.415 456.2 166.124 455.616 165.832 455.032C165.541 454.449 165.152 454.06 164.569 453.671C164.084 453.282 163.501 452.99 162.918 452.892C162.335 452.698 161.655 452.795 160.975 452.698C159.615 452.698 158.254 452.601 156.894 452.601C154.174 452.503 151.453 452.406 148.636 452.406C126.387 451.92 106.179 451.531 91.606 451.239C84.3193 451.044 78.3929 450.85 74.3124 450.655C72.2721 450.558 70.7176 450.461 69.6489 450.461C69.1632 450.461 68.6774 450.364 68.3859 450.364C67.9973 450.266 67.9001 450.266 67.9001 450.266Z" fill="#263238"></path><path d="M196.631 484.504C196.631 484.504 196.533 484.602 196.242 484.699C196.145 484.796 195.951 484.893 195.756 484.991C195.562 485.185 195.368 485.283 195.076 485.477C194.105 486.352 193.133 488.103 192.647 490.535C191.579 495.398 192.356 502.693 192.842 511.836C193.424 520.98 194.105 531.971 195.076 544.518C196.048 557.066 197.116 571.072 198.185 586.246L197.894 586.051C202.363 585.468 207.123 584.981 211.981 584.398L211.787 584.69C210.815 571.267 209.649 556.774 208.581 541.795C207.803 530.706 206.929 519.91 206.152 509.405C206.055 506.779 205.957 504.152 206.249 501.623C206.54 499.094 207.123 496.468 208.289 494.231C209.455 491.897 211.107 489.951 213.147 488.492C215.09 486.936 217.422 485.866 219.656 485.088C224.223 483.434 228.886 482.656 233.258 481.586C237.727 480.614 242.099 479.738 246.277 478.96C254.632 477.307 262.502 475.945 269.691 474.875C284.07 472.638 295.729 471.276 303.89 470.498C307.97 470.109 311.079 469.817 313.217 469.622C314.285 469.525 315.063 469.428 315.646 469.428C316.228 469.428 316.52 469.331 316.52 469.331C316.52 469.331 316.228 469.331 315.743 469.428C315.16 469.525 314.383 469.525 313.314 469.72C311.176 469.914 308.067 470.303 303.987 470.692C295.923 471.568 284.167 472.93 269.886 475.264C262.696 476.431 254.826 477.793 246.471 479.446C242.293 480.225 237.921 481.197 233.452 482.073C228.983 483.045 224.417 483.921 219.851 485.574C217.616 486.45 215.382 487.422 213.438 488.881C211.495 490.34 209.844 492.286 208.775 494.523C207.609 496.76 207.026 499.192 206.735 501.721C206.443 504.25 206.443 506.876 206.638 509.502C207.318 519.91 208.192 530.804 209.066 541.892C210.135 556.871 211.301 571.364 212.273 584.787V584.981H212.078C207.22 585.565 202.46 586.149 197.991 586.635H197.699V586.343C196.631 571.169 195.562 557.163 194.688 544.616C193.716 532.068 193.036 521.077 192.55 511.836C192.161 502.693 191.384 495.398 192.55 490.438C193.036 488.006 194.105 486.255 195.076 485.38C195.368 485.185 195.562 484.991 195.756 484.893C195.951 484.699 196.145 484.699 196.339 484.602C196.436 484.602 196.631 484.504 196.631 484.504Z" fill="#263238"></path><path d="M201.683 488.006C201.683 487.909 203.82 487.714 206.249 488.687C208.678 489.66 210.038 491.313 209.941 491.41C209.844 491.508 208.386 490.146 206.055 489.173C203.723 488.201 201.683 488.201 201.683 488.006Z" fill="#263238"></path><path d="M172.731 445.5C172.828 445.597 171.273 447.543 169.233 449.877C167.193 452.212 165.444 453.962 165.347 453.865C165.25 453.768 166.804 451.823 168.844 449.488C170.885 447.251 172.633 445.403 172.731 445.5Z" fill="#263238"></path><path d="M164.084 447.543C164.181 447.64 163.598 448.71 163.209 450.169C162.723 451.628 162.626 452.893 162.432 452.893C162.335 452.893 162.238 451.628 162.723 450.072C163.209 448.515 163.986 447.543 164.084 447.543Z" fill="#263238"></path><path d="M160.586 436.163C160.489 436.163 160.295 434.12 161.169 431.786C161.946 429.451 163.306 427.895 163.404 427.992C163.501 428.089 162.432 429.646 161.655 431.883C160.78 434.217 160.683 436.163 160.586 436.163Z" fill="#263238"></path><path d="M198.671 479.252C198.476 479.252 198.574 476.918 198.865 474C199.157 471.179 199.545 468.844 199.74 468.844C199.837 468.844 199.74 471.179 199.448 474C199.059 476.918 198.768 479.252 198.671 479.252Z" fill="#263238"></path><path d="M107.345 550.354C107.248 550.257 116.672 535.181 128.428 516.603C140.184 498.024 149.802 483.045 149.899 483.143C149.996 483.24 140.572 498.316 128.816 516.894C117.061 535.375 107.442 550.354 107.345 550.354Z" fill="#263238"></path><path d="M345.181 461.549C345.084 457.659 345.861 456.978 346.249 456.297C346.638 455.616 347.027 455.13 347.027 454.352C347.027 453.476 347.221 449.78 347.221 448.613C347.221 447.446 347.61 445.695 347.512 445.014V444.917C347.998 444.625 348.484 444.528 348.97 444.528C349.067 444.528 349.164 444.528 349.261 444.625C349.456 444.722 349.747 444.722 350.038 444.625C350.136 444.625 350.233 444.528 350.427 444.528C350.719 444.43 350.913 444.333 351.107 444.43C351.301 444.43 351.399 444.528 351.593 444.528C351.593 444.625 351.593 444.722 351.496 444.917C351.399 445.5 351.884 447.251 351.982 448.418C352.079 449.585 352.37 453.282 352.467 454.157C352.467 455.032 352.856 455.422 353.342 456.102C353.827 456.783 354.605 457.367 354.702 461.355C354.702 465.245 354.896 474 354.896 474C354.896 474.389 354.896 474.875 354.896 475.264C354.896 476.042 354.702 477.015 354.216 477.696C353.827 478.182 353.245 478.279 352.662 478.279C352.079 478.279 351.204 478.279 350.33 478.377C349.456 478.377 348.581 478.377 347.998 478.377C347.512 478.377 346.929 478.279 346.541 477.89C345.569 476.918 345.666 475.361 345.569 474.194C345.569 474.194 345.375 465.44 345.181 461.549Z" fill="#86A7B7"></path><path d="M347.027 456.686C347.124 456.589 347.124 456.491 347.221 456.394C347.61 455.81 347.901 455.227 347.998 454.254C347.998 453.768 348.095 452.503 348.095 451.239C348.095 450.169 348.192 449.099 348.192 448.515C348.192 448.321 348.192 448.126 348.192 447.932L351.204 447.835C351.204 448.029 351.301 448.224 351.301 448.418C351.301 449.002 351.399 450.072 351.496 451.142C351.593 452.406 351.69 453.671 351.69 454.157C351.787 455.13 352.079 455.713 352.564 456.2C352.662 456.297 352.662 456.394 352.759 456.491C352.856 456.589 352.856 456.686 352.953 456.783C353.342 457.367 353.925 458.048 353.925 461.257C353.925 462.716 353.925 464.078 353.925 465.537C353.925 468.066 353.925 470.498 354.022 473.027C354.022 473.999 354.119 474.972 353.536 475.945C353.05 476.723 351.787 476.723 350.913 476.723C350.038 476.723 349.067 476.82 348.192 476.723C347.707 476.723 347.221 476.528 346.929 476.237C346.347 475.653 346.444 474.194 346.347 473.513C346.249 471.665 346.249 469.817 346.152 467.969C346.055 465.829 346.055 463.689 345.958 461.549C345.861 458.339 346.347 457.561 346.735 456.978C346.929 456.88 347.027 456.783 347.027 456.686Z" fill="#86A7B7"></path><path d="M351.982 470.692L354.896 470.595L354.702 461.744L351.787 461.841C349.358 461.938 347.415 463.884 347.512 466.315C347.512 468.844 349.553 470.79 351.982 470.692Z" fill="#263238"></path><path d="M347.901 445.5L351.301 445.403C351.593 445.403 351.884 445.111 351.884 444.722C351.884 444.333 351.593 444.139 351.301 444.139L347.901 444.236C347.61 444.236 347.318 444.528 347.318 444.917C347.318 445.208 347.61 445.5 347.901 445.5Z" fill="#86A7B7"></path><path d="M412.995 461.355C412.898 457.464 413.675 456.783 414.064 456.102C414.452 455.421 414.841 454.935 414.841 454.157C414.841 453.282 415.035 449.585 415.035 448.418C415.035 447.251 415.424 445.5 415.327 444.819V444.722C415.812 444.43 416.298 444.333 416.784 444.333C416.881 444.333 416.978 444.333 417.075 444.43C417.27 444.528 417.561 444.528 417.853 444.43C417.95 444.43 418.047 444.333 418.241 444.333C418.533 444.236 418.727 444.138 418.921 444.236C419.116 444.236 419.213 444.333 419.407 444.333C419.407 444.43 419.407 444.528 419.31 444.722C419.213 445.306 419.699 447.056 419.796 448.224C419.893 449.391 420.184 453.087 420.282 453.962C420.282 454.838 420.67 455.227 421.156 455.908C421.642 456.589 422.419 457.172 422.516 461.16C422.516 465.051 422.71 473.805 422.71 473.805C422.71 474.194 422.71 474.68 422.71 475.069C422.71 475.848 422.516 476.82 422.03 477.501C421.642 477.987 421.059 478.085 420.476 478.085C419.893 478.085 419.019 478.085 418.144 478.182C417.27 478.182 416.395 478.182 415.812 478.182C415.327 478.182 414.744 478.085 414.355 477.696C413.384 476.723 413.481 475.167 413.384 474C413.384 474.097 413.092 465.343 412.995 461.355Z" fill="#86A7B7"></path><path d="M414.841 456.491C414.938 456.394 414.938 456.297 415.035 456.2C415.424 455.616 415.715 455.032 415.812 454.06C415.812 453.573 415.91 452.309 415.91 451.044C415.91 449.974 416.007 448.905 416.007 448.321C416.007 448.126 416.007 447.932 416.007 447.737L419.019 447.64C419.019 447.835 419.116 448.029 419.116 448.224C419.116 448.807 419.213 449.877 419.31 450.947C419.407 452.212 419.504 453.476 419.504 453.962C419.602 454.935 419.893 455.519 420.379 456.005C420.476 456.102 420.476 456.2 420.573 456.297C420.67 456.394 420.67 456.491 420.767 456.589C421.156 457.172 421.739 457.853 421.739 461.063C421.739 462.522 421.739 463.884 421.739 465.343C421.739 467.872 421.739 470.303 421.836 472.832C421.836 473.805 421.933 474.778 421.35 475.75C420.865 476.528 419.602 476.528 418.727 476.528C417.853 476.528 416.881 476.626 416.007 476.528C415.521 476.528 415.035 476.334 414.744 476.042C414.161 475.458 414.258 473.999 414.161 473.319C414.064 471.471 414.064 469.622 413.967 467.774C413.869 465.634 413.869 463.495 413.772 461.355C413.675 458.145 414.161 457.367 414.549 456.783C414.647 456.686 414.744 456.589 414.841 456.491Z" fill="#86A7B7"></path><path d="M419.699 470.595L422.613 470.498L422.419 461.647L419.504 461.744C417.075 461.841 415.132 463.786 415.229 466.218C415.229 468.747 417.27 470.692 419.699 470.595Z" fill="#263238"></path><path d="M415.715 445.306L419.116 445.208C419.407 445.208 419.699 444.917 419.699 444.528C419.699 444.139 419.407 443.944 419.116 443.944L415.715 444.041C415.424 444.041 415.132 444.333 415.132 444.722C415.035 445.014 415.327 445.306 415.715 445.306Z" fill="#86A7B7"></path><path d="M401.822 456.2C401.142 455.519 400.17 455.13 399.199 455.227C399.199 454.157 398.519 453.087 397.547 452.601C396.576 452.212 395.313 452.406 394.535 453.282C394.147 452.601 393.661 452.017 393.078 451.628C392.398 451.239 391.621 451.142 390.941 451.433C390.261 451.725 389.775 452.601 390.066 453.282C389.289 452.795 388.22 452.892 387.54 453.476C386.86 454.06 386.569 455.032 386.86 455.908C385.791 455.616 384.626 455.908 383.848 456.686C383.071 457.464 382.78 458.631 383.071 459.701L402.599 458.923C402.696 458.048 402.405 456.978 401.822 456.2Z" fill="white"></path><path d="M382.877 456.102C382.002 455.324 380.642 455.13 379.476 455.616C379.476 454.838 378.991 454.06 378.311 453.671C377.63 453.282 376.756 453.184 376.076 453.573C375.784 452.698 374.619 452.114 373.647 452.406C372.773 452.698 372.19 453.865 372.481 454.838C371.51 454.741 370.441 455.032 369.761 455.811C369.081 456.589 368.789 457.561 368.984 458.534L383.848 459.312C384.237 458.145 383.751 456.881 382.877 456.102Z" fill="white"></path><path d="M372.19 457.756C371.801 457.27 371.121 457.075 370.441 457.172C369.955 456.297 368.692 455.908 367.721 456.394C367.721 455.519 366.749 454.838 365.972 455.13C365.195 455.422 364.709 456.491 365.195 457.172C364.223 456.881 363.154 457.756 363.154 458.729L372.384 459.507C372.773 459.02 372.578 458.242 372.19 457.756Z" fill="white"></path><path d="M362.474 458.339C362.474 458.339 361.114 478.085 380.642 478.085H388.9C388.9 478.085 403.668 476.139 403.668 458.339H362.474Z" fill="#05AEAE"></path><path d="M385.791 450.461C385.5 450.072 384.82 450.072 384.626 450.461C384.82 450.072 384.82 449.585 384.528 449.196C384.237 448.807 383.751 448.613 383.363 448.807C382.974 449.002 382.682 449.488 382.78 449.877C382.877 449.877 382.78 449.877 382.877 449.877H382.78C381.905 449.585 381.517 450.558 381.711 451.044C381.808 451.531 382.488 451.823 382.974 451.628C382.488 451.92 382.391 452.601 382.682 453.087C382.974 453.573 383.654 453.671 384.043 453.379C384.528 453.087 384.626 452.406 384.431 452.017C384.917 452.114 385.403 452.114 385.791 451.725C385.986 451.336 386.083 450.753 385.791 450.461Z" fill="white"></path><path d="M403.765 460.868C403.765 460.966 394.535 461.16 383.265 461.16C371.898 461.16 362.668 461.063 362.668 460.868C362.668 460.771 371.898 460.577 383.265 460.577C394.535 460.577 403.765 460.674 403.765 460.868Z" fill="#263238"></path><path d="M403.765 463.008C403.765 463.106 394.632 463.3 383.265 463.3C371.995 463.3 362.766 463.203 362.766 463.008C362.766 462.911 371.898 462.716 383.265 462.716C394.535 462.716 403.765 462.814 403.765 463.008Z" fill="#263238"></path><path d="M438.255 478.085H329.636V490.729H438.255V478.085Z" fill="#6A8998"></path><path d="M345.472 486.839H337.991V577.297H345.472V486.839Z" fill="#6A8998"></path><path d="M431.357 486.839H423.876V577.297H431.357V486.839Z" fill="#6A8998"></path><path d="M424.945 549.673H342.849V556.288H424.945V549.673Z" fill="#6A8998"></path><path d="M424.945 488.298H344.306V525.065H424.945V488.298Z" fill="#6A8998"></path><path d="M438.255 490.535C438.255 490.632 414.064 490.827 384.237 490.827C354.41 490.827 330.219 490.729 330.219 490.535C330.219 490.34 354.41 490.243 384.237 490.243C414.064 490.243 438.255 490.34 438.255 490.535Z" fill="#455A64"></path><path d="M345.764 490.535C345.861 490.535 345.958 509.988 345.861 533.916C345.764 557.844 345.569 577.297 345.375 577.297C345.278 577.297 345.181 557.844 345.278 533.916C345.472 509.891 345.666 490.535 345.764 490.535Z" fill="#455A64"></path><path d="M424.071 490.535C424.168 490.535 424.362 509.599 424.362 533.235C424.362 556.774 424.265 575.936 424.071 575.936C423.876 575.936 423.779 556.871 423.779 533.235C423.779 509.599 423.973 490.535 424.071 490.535Z" fill="#455A64"></path><g clip-path="url(#clip1_244_93462)"><mask id="mask0_244_93462" style="mask-type:luminance" maskUnits="userSpaceOnUse" x="279" y="296" width="190" height="56"><path d="M469 296H279V352H469V296Z" fill="white"></path></mask><g mask="url(#mask0_244_93462)"><path fill-rule="evenodd" clip-rule="evenodd" d="M396.857 339.789C385.82 347.752 369.814 351.983 356.038 351.983C336.723 351.983 319.334 345.003 306.172 333.394C305.142 332.482 306.06 331.236 307.301 331.942C321.5 340.018 339.057 344.88 357.194 344.88C369.426 344.88 382.875 342.398 395.25 337.269C397.119 336.494 398.685 338.468 396.857 339.789Z" fill="white"></path><path fill-rule="evenodd" clip-rule="evenodd" d="M401.452 334.664C400.037 332.899 392.12 333.827 388.563 334.244C387.487 334.374 387.319 333.452 388.29 332.782C394.607 328.446 404.96 329.699 406.165 331.15C407.378 332.615 405.847 342.76 399.925 347.602C399.013 348.346 398.15 347.95 398.552 346.967C399.88 343.713 402.867 336.433 401.452 334.664ZM388.811 302.143V297.933C388.818 297.287 389.307 296.861 389.904 296.864L409.233 296.861C409.851 296.861 410.347 297.301 410.347 297.922V301.539C410.34 302.143 409.816 302.935 408.89 304.192L398.88 318.161C402.594 318.076 406.529 318.622 409.904 320.473C410.665 320.893 410.871 321.511 410.931 322.119V326.616C410.931 327.234 410.236 327.954 409.505 327.579C403.559 324.533 395.662 324.201 389.087 327.616C388.416 327.964 387.71 327.258 387.71 326.64V322.364C387.71 321.681 387.724 320.51 388.43 319.469L400.03 303.208H389.929C389.31 303.208 388.818 302.775 388.811 302.143ZM318.31 328.466H312.433C311.874 328.429 311.427 328.019 311.382 327.497L311.389 298.004C311.389 297.414 311.895 296.942 312.524 296.942L318.003 296.939C318.576 296.966 319.033 297.39 319.068 297.929V301.778H319.18C320.606 298.056 323.296 296.318 326.919 296.318C330.598 296.318 332.904 298.056 334.547 301.778C335.976 298.056 339.211 296.318 342.673 296.318C345.144 296.318 347.83 297.311 349.476 299.544C351.345 302.03 350.961 305.626 350.961 308.791L350.954 327.404C350.954 327.992 350.447 328.463 349.818 328.463H343.945C343.358 328.425 342.894 327.971 342.894 327.404L342.89 311.765C342.89 310.526 343.002 307.422 342.726 306.244C342.286 304.257 340.972 303.7 339.27 303.7C337.845 303.7 336.363 304.629 335.759 306.118C335.154 307.61 335.21 310.089 335.21 311.765V327.401C335.21 327.988 334.704 328.46 334.075 328.46H328.205C327.615 328.422 327.15 327.968 327.15 327.401L327.143 311.762C327.143 308.474 327.688 303.635 323.52 303.635C319.292 303.635 319.46 308.351 319.46 311.762L319.456 327.398C319.446 327.995 318.939 328.466 318.31 328.466ZM427.041 302.338C422.705 302.338 422.429 308.108 422.429 311.707C422.429 315.306 422.373 323.003 426.985 323.003C431.542 323.003 431.762 316.795 431.762 313.012C431.762 310.529 431.65 307.552 430.881 305.192C430.221 303.143 428.904 302.338 427.041 302.338ZM426.985 296.318C435.713 296.318 440.434 303.642 440.434 312.95C440.434 321.948 435.221 329.084 426.985 329.084C418.425 329.084 413.757 321.76 413.757 312.64C413.754 303.454 418.478 296.318 426.985 296.318ZM451.75 328.466H445.891C445.304 328.429 444.836 327.975 444.836 327.408L444.829 297.905C444.878 297.362 445.364 296.942 445.958 296.942L451.412 296.939C451.925 296.966 452.348 297.308 452.456 297.765V302.276H452.568C454.214 298.24 456.52 296.318 460.58 296.318C463.214 296.318 465.793 297.25 467.442 299.794C468.979 302.15 468.979 306.121 468.979 308.979V327.534C468.913 328.057 468.434 328.463 467.85 328.463H461.956C461.411 328.429 460.971 328.036 460.912 327.534V311.523C460.912 308.296 461.296 303.581 457.232 303.581C455.803 303.581 454.486 304.509 453.829 305.937C453.008 307.736 452.896 309.536 452.896 311.523V327.404C452.882 327.995 452.376 328.466 451.75 328.466ZM379.332 328.391C378.944 328.733 378.381 328.757 377.941 328.524C375.988 326.94 375.639 326.206 374.57 324.697C371.345 327.91 369.06 328.873 364.877 328.873C359.926 328.873 356.076 325.888 356.076 319.916C356.076 315.252 358.665 312.08 362.348 310.526C365.538 309.157 369.996 308.907 373.406 308.535V307.787C373.406 306.418 373.518 304.803 372.69 303.621C371.974 302.563 370.6 302.126 369.388 302.126C367.148 302.126 365.153 303.249 364.661 305.578C364.559 306.097 364.172 306.609 363.64 306.637L357.942 306.032C357.46 305.923 356.925 305.551 357.065 304.83C358.375 298.073 364.619 296.031 370.213 296.031C373.074 296.031 376.813 296.775 379.07 298.892C381.931 301.504 381.655 304.987 381.655 308.781V317.734C381.655 320.428 382.801 321.61 383.874 323.058C384.251 323.58 384.335 324.201 383.856 324.584C382.654 325.567 380.523 327.377 379.349 328.398L379.332 328.391ZM373.406 314.381C373.406 316.621 373.462 318.485 372.305 320.476C371.369 322.095 369.884 323.088 368.235 323.088C365.981 323.088 364.661 321.408 364.661 318.919C364.661 314.026 369.154 313.138 373.406 313.138V314.381ZM302.256 328.391C301.868 328.733 301.305 328.757 300.865 328.524C298.912 326.94 298.563 326.206 297.493 324.697C294.265 327.91 291.98 328.873 287.801 328.873C282.847 328.873 279 325.888 279 319.916C279 315.252 281.586 312.08 285.272 310.526C288.462 309.157 292.916 308.907 296.326 308.535V307.787C296.326 306.418 296.438 304.803 295.61 303.621C294.894 302.563 293.521 302.126 292.312 302.126C290.069 302.126 288.074 303.249 287.585 305.578C287.483 306.097 287.095 306.609 286.564 306.637L280.866 306.032C280.384 305.923 279.849 305.551 279.985 304.83C281.296 298.073 287.539 296.034 293.136 296.034C295.998 296.034 299.736 296.779 301.994 298.896C304.855 301.508 304.579 304.991 304.579 308.784V317.738C304.579 320.432 305.725 321.613 306.798 323.061C307.175 323.583 307.259 324.205 306.78 324.587C305.578 325.571 303.444 327.381 302.27 328.401L302.256 328.391ZM296.326 314.381C296.326 316.621 296.382 318.485 295.226 320.476C294.293 322.095 292.808 323.088 291.155 323.088C288.902 323.088 287.581 321.408 287.581 318.919C287.581 314.026 292.074 313.138 296.326 313.138V314.381Z" fill="white"></path></g></g></g><defs><clipPath id="clip0_244_93462"><rect width="683" height="420" fill="white" transform="translate(44 175)"></rect></clipPath><clipPath id="clip1_244_93462"><rect width="190" height="56" fill="white" transform="translate(279 296)"></rect></clipPath></defs></svg> 